<svg width="497" height="283" viewBox="0 0 497 283" fill="none" xmlns="http://www.w3.org/2000/svg">
<path d="M466.584 146.699C466.03 149.563 464.642 157.793 462.446 171.395C459.69 188.012 456.959 204.635 454.255 221.261C458.536 221.587 462.814 221.926 467.092 222.272C467.102 205.433 467.089 188.599 467.047 171.757C466.988 160.272 467.069 151.941 467.317 146.754C467.073 146.735 466.828 146.715 466.584 146.695V146.699ZM466.825 280.345C466.786 270.466 466.737 260.587 466.678 250.709C461.035 250.246 455.392 249.803 449.746 249.376C448.143 259.125 446.549 268.873 444.966 278.625C435.042 277.885 425.111 277.204 415.183 276.578C425.753 223.738 436.762 170.956 448.211 118.239C462.7 119.272 477.183 120.418 491.659 121.679C493.767 175.465 495.484 229.241 496.81 283C486.82 282.055 476.824 281.169 466.828 280.342L466.825 280.345ZM426.893 145.011C420.126 144.578 413.362 144.167 406.592 143.783C404.099 187.729 401.607 231.675 399.117 275.621C389.183 275.057 379.249 274.552 369.308 274.102C371.296 230.13 373.287 186.158 375.274 142.189C368.585 141.886 361.896 141.609 355.204 141.355C355.559 131.978 355.914 122.601 356.269 113.228C380.422 114.143 404.565 115.372 428.695 116.922C428.095 126.286 427.493 135.65 426.893 145.014V145.011ZM350.652 151.951C350.525 155.457 350.398 158.962 350.271 162.471C339.907 162.093 329.543 161.777 319.178 161.52C319.283 157.327 319.387 153.13 319.491 148.937C319.605 144.363 319.156 141.111 318.142 139.176C317.126 137.247 315.471 136.25 313.183 136.198C310.893 136.146 309.196 137.107 308.094 139.065C306.99 141.026 306.397 144.372 306.299 149.1C306.224 152.762 306.569 155.707 307.338 157.933C308.101 160.161 309.704 162.983 312.138 166.391C314.565 169.805 319.003 175.475 325.382 183.431C331.755 191.391 336.421 197.989 339.447 203.202C342.468 208.418 344.524 213.334 345.635 217.951C346.739 222.571 347.179 228.006 346.951 234.258C346.622 243.407 344.964 251.018 342.021 257.098C339.073 263.178 334.87 267.697 329.412 270.658C323.955 273.623 317.204 275.005 309.137 274.826C297.342 274.565 288.402 271.01 282.251 264.07C276.099 257.134 273.04 246.968 273.147 233.541C273.18 229.423 273.212 225.302 273.248 221.183C283.384 221.268 293.524 221.408 303.66 221.604C303.565 226.331 303.474 231.062 303.38 235.79C303.295 240.061 303.787 243.12 304.849 244.974C305.908 246.825 307.534 247.776 309.733 247.825C312.085 247.877 313.79 246.968 314.858 245.082C315.924 243.202 316.513 240.051 316.621 235.623C316.712 231.965 316.393 228.866 315.663 226.328C314.93 223.793 313.304 220.74 310.766 217.173C308.225 213.608 303.709 207.711 297.14 199.51C291.044 191.625 286.388 185.236 283.228 180.313C280.064 175.396 277.894 170.682 276.725 166.169C275.555 161.66 274.988 156.428 275.04 150.478C275.115 141.479 276.65 133.822 279.667 127.521C282.684 121.223 287.06 116.541 292.791 113.495C298.525 110.455 305.53 109.008 313.786 109.194C326.333 109.478 335.776 113.319 342.034 120.62C348.297 127.925 351.144 138.381 350.649 151.948L350.652 151.951ZM261.881 271.463C252.09 271.424 242.299 271.44 232.508 271.512C225.184 236.78 217.573 202.078 209.682 167.407C209.519 167.407 209.359 167.414 209.196 167.414C210.617 186.008 211.448 199.044 211.721 206.515C212.682 228.244 213.631 249.972 214.559 271.704C205.313 271.835 196.069 272.017 186.826 272.245C185.496 218.864 184.17 165.479 182.841 112.097C193.231 111.84 203.622 111.638 214.012 111.498C221.991 146.177 229.684 180.893 237.096 215.638C237.255 215.638 237.415 215.638 237.572 215.638C236.539 200.693 235.744 187.957 235.196 177.433C234.499 155.391 233.786 133.347 233.062 111.305C242.876 111.24 252.693 111.227 262.506 111.266C262.298 164.664 262.086 218.062 261.874 271.46L261.881 271.463ZM141.713 236.656C140.521 207.998 139.328 179.339 138.136 150.683C137.947 146.109 137.201 142.857 135.891 140.928C134.585 139 132.701 138.084 130.251 138.195C127.635 138.312 125.801 139.391 124.751 141.424C123.699 143.46 123.285 146.761 123.5 151.335C124.846 179.987 126.195 208.636 127.54 237.288C127.755 241.86 128.459 245.114 129.648 247.04C130.838 248.972 132.685 249.878 135.194 249.767C137.543 249.663 139.263 248.597 140.358 246.564C141.453 244.534 141.906 241.231 141.713 236.66V236.656ZM168.258 256.749C165.563 263.096 161.513 267.922 156.114 271.248C150.709 274.575 144.144 276.399 136.39 276.741C124.445 277.272 115.169 274.249 108.477 267.586C101.791 260.926 98.002 250.686 97.1907 236.822C95.5942 209.561 94.001 182.297 92.4045 155.033C91.8701 145.894 92.8834 138.12 95.4769 131.701C98.0704 125.289 102.205 120.36 107.89 116.929C113.569 113.505 120.636 111.586 129.052 111.211C141.593 110.657 151.393 113.853 158.376 120.715C165.358 127.58 169.017 137.892 169.431 151.615C170.255 178.912 171.076 206.209 171.9 233.506C172.174 242.655 170.949 250.402 168.261 256.743L168.258 256.749ZM96.4479 276.067C85.8947 276.696 75.3448 277.39 64.7982 278.149C57.0438 254.843 49.1232 231.574 41.0364 208.336C40.2415 208.398 39.4432 208.463 38.6482 208.525C40.5412 232.251 42.4342 255.974 44.3304 279.7C34.4094 280.491 24.4883 281.342 14.5737 282.248C9.71581 229.071 4.85791 175.892 0 122.715C10.5238 121.754 21.0509 120.852 31.5845 120.011C33.4287 143.128 35.276 166.244 37.1201 189.361C37.9216 189.296 38.7232 189.234 39.5279 189.169C43.6397 165.58 47.9046 142.004 52.3259 118.431C63.1072 117.652 73.8949 116.935 84.6859 116.284C79.0689 142.303 73.6506 168.336 68.431 194.382C78.0067 221.561 87.3478 248.786 96.4511 276.06L96.4479 276.067Z" fill="white"/>
<path d="M475.953 73.5514C475.692 73.0106 475.256 72.7108 474.64 72.6554C474.024 72.6 473.542 72.8151 473.19 73.3005C472.835 73.786 472.607 74.6331 472.496 75.8386C471.864 82.8567 471.235 89.8715 470.603 96.8896C470.496 98.0951 470.571 98.9683 470.828 99.5091C471.085 100.05 471.515 100.346 472.125 100.402C472.731 100.457 473.21 100.242 473.562 99.7568C473.91 99.2713 474.141 98.4242 474.252 97.2187C474.894 90.2038 475.536 83.1858 476.178 76.171C476.289 74.9655 476.214 74.0923 475.953 73.5514ZM482.098 77.0963C481.463 83.8635 480.827 90.6307 480.195 97.3946C480.009 99.3788 479.557 101.018 478.843 102.308C478.129 103.598 477.159 104.536 475.937 105.12C474.715 105.703 473.281 105.921 471.642 105.771C469.147 105.546 467.306 104.615 466.12 102.973C464.934 101.334 464.471 99.0074 464.735 95.9936C465.328 89.2231 465.921 82.4527 466.511 75.6823C466.684 73.698 467.127 72.0592 467.844 70.7624C468.557 69.469 469.534 68.5273 470.773 67.9409C472.011 67.3544 473.464 67.1361 475.129 67.286C477.628 67.5108 479.485 68.4622 480.7 70.1271C481.912 71.7953 482.378 74.1183 482.098 77.093V77.0963ZM456.821 71.8832C456.557 71.3424 456.117 71.0459 455.502 70.997C454.886 70.9449 454.404 71.1665 454.055 71.6552C453.706 72.1439 453.482 72.991 453.384 74.1965C452.807 81.2179 452.23 88.2392 451.654 95.2605C451.553 96.466 451.634 97.3392 451.898 97.8768C452.159 98.4176 452.595 98.7109 453.201 98.7598C453.807 98.8086 454.286 98.5903 454.632 98.1016C454.977 97.6129 455.202 96.7658 455.303 95.5603C455.889 88.5389 456.476 81.5176 457.062 74.4963C457.163 73.2908 457.082 72.4176 456.818 71.88L456.821 71.8832ZM462.992 75.3792C462.409 82.1497 461.826 88.9234 461.246 95.6938C461.073 97.6781 460.636 99.3202 459.933 100.617C459.229 101.914 458.265 102.859 457.046 103.452C455.827 104.044 454.4 104.273 452.758 104.136C450.262 103.93 448.415 103.012 447.216 101.383C446.017 99.7502 445.535 97.4272 445.776 94.4134C446.317 87.6397 446.854 80.866 447.395 74.089C447.555 72.1015 447.985 70.4594 448.689 69.1594C449.393 67.8594 450.364 66.9113 451.595 66.3151C452.827 65.7188 454.28 65.4875 455.945 65.6276C458.444 65.8361 460.311 66.7679 461.536 68.4263C462.761 70.0847 463.243 72.4046 462.989 75.3792H462.992ZM439.247 92.1881C440.25 92.2663 441.032 92.6279 441.596 93.2795C442.159 93.9312 442.401 94.7522 442.322 95.746C442.244 96.7397 441.876 97.5249 441.221 98.0951C440.563 98.6685 439.735 98.9161 438.735 98.838C437.735 98.7598 436.953 98.3883 436.393 97.7237C435.832 97.0557 435.588 96.2282 435.663 95.2344C435.738 94.2407 436.103 93.4653 436.757 92.9081C437.412 92.351 438.243 92.1099 439.247 92.1881ZM444.134 72.6C444.056 73.5938 443.688 74.3757 443.023 74.9492C442.361 75.5226 441.524 75.7702 440.514 75.692C439.504 75.6138 438.716 75.2424 438.149 74.5745C437.582 73.9066 437.337 73.0757 437.412 72.082C437.487 71.0883 437.855 70.3128 438.517 69.7557C439.178 69.1985 440.016 68.9607 441.029 69.0389C442.042 69.1171 442.831 69.482 443.401 70.1336C443.968 70.7852 444.212 71.6063 444.134 72.6ZM427.811 69.583C427.573 69.0845 427.165 68.8141 426.586 68.7717C426.006 68.7326 425.566 68.9411 425.259 69.4005C424.953 69.8599 424.761 70.6745 424.679 71.8474C424.477 74.7211 424.275 77.5981 424.073 80.4717C424.015 81.2895 424.09 81.9184 424.292 82.3582C424.497 82.8013 424.849 83.0392 425.354 83.075C425.82 83.1076 426.23 82.9414 426.582 82.5732C426.934 82.2051 427.208 81.6545 427.407 80.9181C427.618 77.9727 427.83 75.0274 428.042 72.082C428.127 70.9091 428.048 70.075 427.814 69.5765L427.811 69.583ZM433.972 72.9487C433.463 79.7973 432.955 86.6459 432.447 93.4946C432.229 96.44 431.417 98.6262 430.02 100.06C428.622 101.493 426.709 102.119 424.282 101.946C422.64 101.829 421.281 101.386 420.206 100.617C419.131 99.848 418.349 98.7858 417.867 97.4337C417.384 96.0816 417.212 94.4101 417.345 92.4226C417.401 91.6049 417.456 90.7903 417.512 89.9725C419.486 90.1061 421.457 90.2429 423.428 90.383C423.36 91.3409 423.295 92.2988 423.226 93.2567C423.145 94.4297 423.22 95.2638 423.454 95.7623C423.689 96.2608 424.093 96.5279 424.663 96.5703C425.237 96.6094 425.663 96.4009 425.947 95.9415C426.23 95.4788 426.416 94.6643 426.501 93.4913C426.677 91.0249 426.856 88.5585 427.032 86.0921C426.485 86.6948 425.836 87.1575 425.093 87.48C424.347 87.8026 423.546 87.9329 422.685 87.871C421.141 87.7635 419.952 87.0923 419.118 85.8575C418.28 84.6226 417.938 82.8893 418.091 80.6509C418.29 77.7219 418.489 74.7928 418.688 71.867C418.825 69.8795 419.225 68.2471 419.893 66.9732C420.561 65.6993 421.5 64.7577 422.708 64.1451C423.917 63.5326 425.338 63.285 426.97 63.4023C429.472 63.5815 431.323 64.4742 432.515 66.0772C433.708 67.6835 434.193 69.974 433.972 72.9552V72.9487ZM413.133 100.535C411.168 100.405 409.203 100.278 407.239 100.151C407.903 89.764 408.571 79.377 409.236 68.9933C408.167 69.2279 407.098 69.4624 406.033 69.697C406.141 67.993 406.248 66.289 406.356 64.585C407.9 64.0409 409.444 63.4968 410.989 62.9559C412.53 63.0569 414.071 63.1579 415.612 63.2589C414.784 75.6855 413.957 88.1121 413.133 100.539V100.535ZM388.778 103.315C386.996 103.214 385.21 103.116 383.428 103.018C386.709 88.7637 390.032 74.5158 393.401 60.2744C395.216 60.3787 397.031 60.4862 398.846 60.5937C395.447 74.8286 392.091 89.0667 388.781 103.315H388.778ZM368.818 73.1442C368.685 70.6093 368.626 68.4687 368.636 66.7223C368.581 66.7223 368.528 66.7158 368.473 66.7158C368.31 67.8464 368.01 69.9707 367.574 73.0855C367.03 76.979 366.482 80.8725 365.941 84.7627C367.056 84.8149 368.17 84.867 369.284 84.9224C369.131 80.9963 368.978 77.0702 368.822 73.1442H368.818ZM369.832 98.0397C369.701 95.557 369.571 93.0775 369.441 90.5948C368.027 90.5264 366.609 90.458 365.192 90.3928C364.827 92.8527 364.459 95.3094 364.097 97.7693C362.133 97.6781 360.165 97.5901 358.2 97.5021C360.445 85.1342 362.716 72.7695 365.013 60.408C367.698 60.5318 370.382 60.6589 373.07 60.7925C373.983 73.3071 374.869 85.8216 375.735 98.3362C373.771 98.2352 371.803 98.1374 369.838 98.0397H369.832ZM355.945 97.4044C353.961 97.3197 351.977 97.2349 349.993 97.1535C348.644 88.5161 347.275 79.8788 345.888 71.2446C345.852 71.2446 345.816 71.2446 345.78 71.2414C345.829 76.5848 345.835 80.0938 345.809 81.7652C345.721 86.8349 345.633 91.9079 345.542 96.9776C343.701 96.9059 341.86 96.8374 340.02 96.769C340.476 84.3229 340.929 71.8767 341.382 59.4338C343.398 59.5088 345.412 59.5837 347.425 59.6619C348.817 68.296 350.188 76.9334 351.544 85.574C351.58 85.574 351.615 85.574 351.651 85.5773C351.593 80.8399 351.573 77.383 351.589 75.2131C351.71 70.0913 351.827 64.9662 351.944 59.8444C353.815 59.9193 355.685 60.0008 357.552 60.079C357.017 72.5218 356.48 84.9615 355.945 97.4076V97.4044ZM338.026 64.9727C336.107 64.9043 334.187 64.8391 332.265 64.7772C332.154 68.0842 332.047 71.3913 331.939 74.6983C333.673 74.7569 335.403 74.8156 337.133 74.8742C337.068 76.7607 337.003 78.6439 336.934 80.5271C335.207 80.4685 333.48 80.4066 331.75 80.3512C331.636 83.8374 331.522 87.3204 331.405 90.8066C333.36 90.8718 335.312 90.9369 337.263 91.0053C337.198 92.8886 337.13 94.775 337.064 96.6582C333.148 96.5214 329.235 96.3911 325.316 96.2738C325.697 83.8244 326.075 71.3782 326.456 58.9288C330.379 59.0494 334.298 59.1764 338.218 59.3165C338.153 61.203 338.084 63.0862 338.019 64.9694L338.026 64.9727ZM316.062 64.7511C315.678 64.1516 315.088 63.8454 314.293 63.8226C313.912 63.8128 313.531 63.803 313.153 63.7932C313.052 67.7943 312.951 71.7953 312.85 75.7963C313.228 75.8061 313.609 75.8158 313.987 75.8256C314.779 75.8452 315.381 75.578 315.795 75.0176C316.206 74.4604 316.431 73.5221 316.466 72.2058C316.505 70.6745 316.548 69.1464 316.587 67.6151C316.623 66.2988 316.45 65.3409 316.066 64.7446L316.062 64.7511ZM322.543 68.2146C322.507 69.4592 322.471 70.7038 322.435 71.9484C322.38 73.8349 322.08 75.4281 321.539 76.7281C320.998 78.0281 320.321 78.973 319.513 79.5529C320.474 85.0983 321.429 90.6437 322.377 96.1891C320.337 96.1304 318.301 96.0718 316.261 96.0164C315.473 91.0282 314.674 86.0432 313.876 81.0582C313.475 81.0484 313.091 81.0387 312.72 81.0289C312.596 85.9911 312.469 90.9532 312.345 95.9154C310.377 95.8665 308.412 95.8176 306.444 95.772C306.728 83.3226 307.011 70.87 307.295 58.4206C309.673 58.4759 312.052 58.5313 314.43 58.5932C317.226 58.6649 319.304 59.4795 320.656 61.0303C322.009 62.5812 322.637 64.976 322.543 68.2113V68.2146ZM296.494 70.7462C296.289 68.2146 296.165 66.0772 296.122 64.3341C296.067 64.3341 296.015 64.3341 295.96 64.3341C295.829 65.4712 295.591 67.602 295.246 70.7266C294.813 74.6331 294.383 78.5397 293.956 82.4462C295.07 82.4657 296.184 82.4853 297.299 82.5081C297.032 78.5885 296.761 74.669 296.491 70.7494L296.494 70.7462ZM298.234 95.6026C298.032 93.1264 297.83 90.6469 297.624 88.1708C296.207 88.1447 294.79 88.1186 293.373 88.0926C293.079 90.5622 292.786 93.0287 292.493 95.4983C290.525 95.4658 288.557 95.4332 286.589 95.4039C288.472 82.9773 290.378 70.5507 292.314 58.1273C295.002 58.1729 297.69 58.2218 300.374 58.2739C301.652 70.7559 302.903 83.2379 304.134 95.7232C302.166 95.6808 300.198 95.6384 298.231 95.6026H298.234ZM270.725 63.3827C270.419 62.8647 269.96 62.604 269.344 62.5975C268.728 62.5942 268.262 62.8484 267.952 63.3599C267.64 63.8747 267.48 64.7381 267.474 65.9469C267.425 72.9943 267.379 80.0384 267.33 87.0825C267.324 88.2946 267.467 89.158 267.77 89.676C268.07 90.1941 268.526 90.4547 269.135 90.4612C269.744 90.4645 270.204 90.2104 270.513 89.6988C270.823 89.1873 270.983 88.3239 270.992 87.1151C271.051 80.0677 271.11 73.0236 271.168 65.9795C271.178 64.7707 271.031 63.9073 270.728 63.386L270.725 63.3827ZM276.916 86.7926C276.893 88.7833 276.58 90.4547 275.974 91.8003C275.368 93.146 274.482 94.1592 273.312 94.8435C272.142 95.5277 270.735 95.86 269.093 95.8502C266.587 95.8307 264.681 95.0552 263.365 93.5174C262.049 91.9795 261.394 89.7021 261.407 86.6753C261.436 79.8788 261.466 73.0822 261.498 66.2857C261.508 64.295 261.814 62.6236 262.417 61.2714C263.023 59.9226 263.916 58.9028 265.102 58.2153C266.284 57.5278 267.715 57.1922 269.386 57.202C271.892 57.2216 273.82 58.0133 275.166 59.5739C276.512 61.1346 277.167 63.412 277.134 66.3998C277.062 73.1963 276.987 79.9928 276.916 86.786V86.7926ZM252.248 95.1399C252.235 89.5164 252.219 83.8961 252.206 78.2725C252.206 77.5622 252.206 76.6988 252.206 75.6855C252.206 74.6722 252.225 73.6133 252.261 72.5088C252.261 71.4401 252.271 70.4725 252.291 69.5993C252.31 68.7261 252.32 68.006 252.32 67.4391C252.264 67.4391 252.212 67.4391 252.157 67.4391C251.085 74.5191 250.023 81.5991 248.971 88.6823C247.697 88.6823 246.423 88.6823 245.152 88.6888C244.132 81.6088 243.103 74.5321 242.066 67.4554C242.011 67.4554 241.959 67.4554 241.904 67.4554C241.904 68.0614 241.917 68.7913 241.939 69.6416C241.962 70.4953 241.972 71.4206 241.975 72.4176C242.014 73.6264 242.037 74.7472 242.04 75.78C242.044 76.8128 242.047 77.6306 242.05 78.2334C242.05 83.8733 242.053 89.5131 242.057 95.153C240.125 95.1595 238.193 95.1693 236.26 95.179C236.616 82.7231 236.98 70.2672 237.349 57.8113C239.58 57.7982 241.816 57.7917 244.051 57.7852C244.826 63.0667 245.598 68.3482 246.367 73.6329C246.768 76.4414 247.025 78.3474 247.133 79.3412C247.188 79.3412 247.24 79.3412 247.296 79.3412C247.367 78.595 247.465 77.7121 247.589 76.6988C247.713 75.6823 247.846 74.6624 247.993 73.6296C248.782 68.3449 249.573 63.0602 250.372 57.7754C252.623 57.7754 254.874 57.7754 257.126 57.782C257.474 70.2379 257.82 82.6905 258.155 95.1465C256.187 95.1399 254.219 95.1367 252.251 95.1367L252.248 95.1399ZM231.992 91.7417C231.393 93.1003 230.533 94.1267 229.412 94.8337C228.291 95.5374 226.926 95.8958 225.316 95.9121C222.847 95.9382 220.944 95.1953 219.602 93.6836C218.259 92.1718 217.562 89.9041 217.523 86.8773C217.392 77.2527 217.262 67.6281 217.135 58.0035C219.132 57.9774 221.13 57.9514 223.127 57.9286C223.234 67.677 223.342 77.4254 223.449 87.177C223.462 88.3891 223.625 89.2492 223.935 89.7607C224.244 90.2723 224.687 90.5264 225.261 90.5199C225.799 90.5166 226.216 90.2527 226.515 89.7347C226.815 89.2166 226.958 88.3532 226.945 87.1412C226.851 77.3928 226.756 67.6411 226.665 57.8927C228.662 57.8732 230.66 57.8569 232.657 57.8439C232.725 67.4684 232.797 77.093 232.865 86.7176C232.878 88.7116 232.585 90.3863 231.989 91.7417H231.992ZM207.872 95.5146C207.778 90.1778 207.686 84.8409 207.592 79.5041C206.386 79.5269 205.181 79.5464 203.972 79.5692C204.073 84.9061 204.174 90.2429 204.275 95.5798C202.307 95.6156 200.343 95.6547 198.375 95.7004C198.107 83.2477 197.844 70.7983 197.576 58.3456C199.574 58.3033 201.571 58.2609 203.568 58.2251C203.669 63.4544 203.767 68.6837 203.865 73.9131C205.073 73.8903 206.282 73.8675 207.491 73.8479C207.4 68.6186 207.308 63.3892 207.217 58.1599C209.215 58.1241 211.212 58.0915 213.209 58.0622C213.398 70.5148 213.584 82.9675 213.773 95.4201C211.805 95.4495 209.837 95.4821 207.869 95.5146H207.872ZM180.256 100.425C178.471 100.477 176.685 100.529 174.903 100.584C176.956 86.1018 179.051 71.6226 181.194 57.1466C183.009 57.0945 184.827 57.0456 186.645 57C184.472 71.4695 182.345 85.9454 180.259 100.421L180.256 100.425ZM157.677 73.0855C157.618 71.5574 157.563 70.0261 157.504 68.498C157.455 67.1817 157.221 66.2401 156.801 65.6667C156.38 65.0965 155.771 64.8261 154.973 64.8554C154.592 64.8684 154.214 64.8847 153.832 64.8978C153.989 68.8988 154.145 72.8998 154.302 76.8975C154.68 76.8813 155.061 76.8682 155.439 76.8519C156.23 76.8193 156.814 76.5131 157.192 75.9299C157.566 75.3467 157.729 74.3953 157.68 73.079L157.677 73.0855ZM161.189 80.2209C162.506 85.6913 163.815 91.165 165.115 96.6354C163.076 96.7071 161.039 96.7821 159 96.857C157.892 91.9307 156.778 87.0076 155.66 82.0813C155.259 82.0976 154.875 82.1106 154.504 82.1269C154.699 87.0858 154.891 92.048 155.084 97.0069C153.119 97.0818 151.151 97.1633 149.183 97.2447C148.668 84.8018 148.15 72.3589 147.635 59.916C150.014 59.8183 152.392 59.7238 154.767 59.6293C157.563 59.5218 159.687 60.2028 161.137 61.6624C162.587 63.1253 163.369 65.4745 163.483 68.7098C163.525 69.9544 163.571 71.199 163.613 72.4436C163.679 74.3301 163.483 75.9364 163.024 77.2722C162.568 78.6048 161.952 79.5888 161.183 80.2209H161.189ZM139.666 88.6823C139.617 87.581 139.565 86.4765 139.516 85.3753C139.457 84.0622 139.216 83.1271 138.793 82.5765C138.372 82.0259 137.763 81.7685 136.975 81.8043C136.561 81.8239 136.147 81.8434 135.733 81.863C135.9 85.4339 136.066 89.0081 136.235 92.579C136.649 92.5595 137.059 92.5399 137.47 92.5204C138.258 92.4845 138.835 92.162 139.203 91.5592C139.571 90.9532 139.725 89.9953 139.666 88.679V88.6823ZM138.711 72.3752C138.666 71.3424 138.617 70.3128 138.571 69.2832C138.513 67.9702 138.268 67.0253 137.845 66.4584C137.421 65.8915 136.809 65.6243 136.014 65.6602C135.671 65.6765 135.326 65.6928 134.981 65.709C135.144 69.2083 135.307 72.7108 135.469 76.2133C135.812 76.197 136.154 76.1807 136.496 76.1645C137.291 76.1286 137.871 75.8158 138.242 75.2294C138.614 74.6429 138.77 73.6915 138.708 72.3785L138.711 72.3752ZM143.807 95.2019C142.494 96.7755 140.464 97.6194 137.711 97.7465C135.336 97.8572 132.957 97.968 130.582 98.0853C129.973 85.6457 129.36 73.2093 128.751 60.7697C131.091 60.6556 133.433 60.5449 135.772 60.4341C138.565 60.3038 140.696 60.9684 142.158 62.4183C143.621 63.8682 144.42 66.2108 144.556 69.4461C144.589 70.1923 144.622 70.9416 144.651 71.6845C144.719 73.2843 144.508 74.6755 144.016 75.8517C143.524 77.0311 142.843 77.9793 141.973 78.6928C143.009 79.289 143.833 80.1622 144.442 81.3091C145.052 82.456 145.391 83.8667 145.462 85.5382C145.498 86.356 145.534 87.1738 145.566 87.9916C145.703 91.2269 145.117 93.6282 143.804 95.1986L143.807 95.2019ZM118.859 73.8349C118.472 71.3261 118.195 69.2018 118.029 67.4652C117.973 67.4652 117.921 67.4717 117.866 67.475C117.817 68.6186 117.735 70.7624 117.612 73.9033C117.462 77.8294 117.312 81.7587 117.165 85.688C118.279 85.6261 119.394 85.5675 120.505 85.5088C119.957 81.6186 119.407 77.7284 118.856 73.8381L118.859 73.8349ZM122.381 98.5024C122 96.0457 121.622 93.5891 121.241 91.1324C119.827 91.2074 118.41 91.2823 116.992 91.3605C116.875 93.8432 116.761 96.3259 116.647 98.8086C114.682 98.9162 112.715 99.0269 110.75 99.141C111.737 86.6101 112.747 74.0792 113.786 61.5484C116.471 61.4018 119.156 61.2584 121.841 61.1183C124.011 73.4765 126.154 85.8379 128.279 98.1994C126.314 98.2971 124.346 98.3981 122.381 98.5024ZM105.354 67.6965C105.973 78.2464 106.592 88.7963 107.211 99.3462C105.247 99.4603 103.282 99.5775 101.317 99.6981C100.672 89.1515 100.027 78.6016 99.3854 68.0549C97.9388 68.1429 96.4889 68.2341 95.0423 68.3253C94.925 66.4421 94.8077 64.5622 94.6872 62.679C99.5646 62.3727 104.442 62.0795 109.323 61.8025C109.43 63.6857 109.538 65.5689 109.645 67.4522C108.215 67.5336 106.785 67.6151 105.358 67.6998L105.354 67.6965ZM97.0298 99.9653C94.9576 100.096 92.8854 100.229 90.8165 100.363C89.0049 94.8826 87.1836 89.4056 85.3525 83.9286C85.0463 83.9514 84.74 83.971 84.4337 83.9905C84.8117 89.5652 85.1864 95.1367 85.5643 100.711C83.5997 100.845 81.635 100.979 79.6703 101.115C78.8004 88.6921 77.9305 76.2687 77.0605 63.8454C79.0545 63.7053 81.0485 63.5684 83.0425 63.4349C83.4139 68.9216 83.7854 74.4051 84.1568 79.8885C84.4631 79.869 84.7693 79.8494 85.0756 79.8266C86.0759 74.2487 87.0859 68.674 88.1024 63.096C90.1323 62.9624 92.1653 62.8321 94.1952 62.705C92.9799 68.8238 91.7744 74.9459 90.5819 81.068C92.7453 87.3627 94.8924 93.6607 97.0298 99.962V99.9653ZM69.4332 93.7226C68.9152 86.6948 68.3939 79.6702 67.8758 72.6457C67.7878 71.4401 67.5695 70.5898 67.2242 70.0978C66.8788 69.6058 66.3966 69.3842 65.7841 69.4299C65.1683 69.4755 64.7252 69.7687 64.458 70.3063C64.1876 70.8439 64.0996 71.7171 64.1908 72.9226C64.7219 79.9472 65.2497 86.9718 65.7808 93.9996C65.872 95.2051 66.0903 96.0555 66.4324 96.5475C66.7746 97.0395 67.2502 97.261 67.8595 97.2187C68.4655 97.173 68.9054 96.8831 69.1693 96.3455C69.4332 95.8079 69.5244 94.9379 69.4332 93.7292V93.7226ZM74.7896 97.9876C74.2976 99.3788 73.4929 100.461 72.3851 101.239C71.2741 102.015 69.8991 102.464 68.257 102.588C65.758 102.774 63.7901 102.158 62.3532 100.734C60.9131 99.3104 60.0758 97.0916 59.8412 94.0778C59.3134 87.3041 58.7856 80.5271 58.2577 73.7502C58.1013 71.7627 58.2708 70.075 58.7628 68.6772C59.2547 67.2827 60.0628 66.1945 61.1868 65.4126C62.3109 64.6306 63.7086 64.1777 65.3768 64.0506C67.8791 63.8649 69.8665 64.4938 71.336 65.9404C72.8054 67.387 73.646 69.5993 73.8578 72.5805C74.3432 79.3607 74.8287 86.1377 75.3109 92.9179C75.4543 94.9054 75.2783 96.5963 74.7831 97.9876H74.7896ZM47.079 86.9098C46.9389 85.2254 46.7988 83.5409 46.6587 81.8565C49.7181 81.6023 52.7775 81.3547 55.8402 81.1136C55.9738 82.7981 56.1074 84.4825 56.2409 86.167C53.1848 86.4081 50.1319 86.6557 47.079 86.9098ZM46.5121 93.1166C46.8021 96.6094 47.092 100.102 47.3853 103.595C42.371 104.012 37.3599 104.445 32.3489 104.895C32.1893 103.106 32.0296 101.314 31.8667 99.5254C31.6908 97.5412 31.6647 95.9708 31.7983 94.8141C31.9286 93.6607 32.2968 92.4129 32.9028 91.0738C33.5055 89.7347 34.5579 87.7309 36.0665 85.0625C37.0406 83.3715 37.7346 82.0422 38.1419 81.0778C38.5492 80.1133 38.8033 79.1913 38.9108 78.3051C39.0151 77.4221 39.0053 76.2524 38.8815 74.7993C38.7805 73.6296 38.585 72.8183 38.2918 72.3589C37.9985 71.9028 37.5782 71.6975 37.0374 71.7431C36.4574 71.792 36.0632 72.069 35.8547 72.5675C35.6429 73.0692 35.5875 73.9033 35.6918 75.073C35.7895 76.2068 35.8905 77.3407 35.9883 78.4745C34.0073 78.6472 32.0231 78.8231 30.0421 78.9991C29.9542 78.0053 29.8662 77.0148 29.775 76.0211C29.5111 73.079 29.9607 70.7885 31.1304 69.1497C32.2968 67.5108 34.1148 66.5822 36.578 66.3704C39.0053 66.1619 40.9341 66.7484 42.3645 68.1266C43.7948 69.5048 44.6224 71.6161 44.8602 74.4539C45.0199 76.3697 45.0427 77.8587 44.9352 78.9209C44.8244 79.983 44.5181 81.0973 44.0164 82.2637C43.5146 83.4301 42.6153 85.1211 41.3219 87.3399C40.0023 89.6662 39.0965 91.3442 38.6078 92.3673C38.1191 93.3936 37.8193 94.2928 37.7053 95.0715C37.5913 95.8502 37.5945 96.9124 37.7118 98.258C37.7314 98.4698 37.7477 98.6848 37.7672 98.8966C38.9825 98.7923 40.1978 98.6881 41.4131 98.5806C41.2697 96.9156 41.1264 95.2475 40.9863 93.5826C42.8304 93.4229 44.6778 93.2665 46.5219 93.1166H46.5121ZM23.3597 105.716C22.392 95.3517 21.4276 84.9908 20.4632 74.6266C19.4434 75.0241 18.4236 75.4249 17.407 75.8256C17.2474 74.1249 17.0845 72.4241 16.9248 70.7233C18.3649 69.9446 19.8083 69.1659 21.2516 68.3872C22.7895 68.2439 24.3273 68.1038 25.8684 67.9637C26.9958 80.3675 28.1198 92.768 29.2471 105.172C27.2857 105.351 25.3243 105.53 23.3629 105.713L23.3597 105.716Z" fill="white"/>
<path d="M291.243 41.2338C289.695 41.1491 288.151 41.0709 286.6 40.9927C285.069 30.7002 283.456 20.4109 281.762 10.1282C281.723 10.1282 281.68 10.1249 281.641 10.1217C281.716 18.1074 281.713 22.8774 281.648 24.4413C281.423 29.8726 281.195 35.304 280.97 40.7353C279.634 40.6799 278.298 40.6278 276.966 40.5789C277.454 27.2335 277.943 13.8914 278.429 0.545974C280.058 0.604621 281.683 0.669784 283.309 0.738205C285.01 11.0242 286.633 21.3167 288.177 31.6125C288.216 31.6125 288.255 31.6157 288.294 31.619C288.294 23.8255 288.33 19.0555 288.415 17.2994C288.685 11.8681 288.952 6.43997 289.223 1.01189C290.624 1.08031 292.028 1.15525 293.429 1.23019C292.699 14.5625 291.969 27.8949 291.24 41.2273L291.243 41.2338ZM263.278 14.4453C263.04 12.1515 262.868 9.47657 262.76 6.42368C262.679 6.42368 262.597 6.42368 262.519 6.42042C262.278 8.66855 261.949 11.3337 261.538 14.4159C260.968 18.6027 260.408 22.7926 259.857 26.9794C261.411 27.0022 262.965 27.0282 264.52 27.0608C264.112 22.8545 263.698 18.6483 263.278 14.4453ZM265.82 40.2531C265.52 37.1937 265.217 34.1343 264.907 31.0749C263.047 31.0358 261.186 31.0032 259.326 30.9771C258.912 34.0235 258.502 37.0699 258.094 40.1162C256.7 40.1 255.305 40.0837 253.914 40.0739C255.889 26.735 257.961 13.4059 260.128 0.0800582C261.978 0.106123 263.829 0.138705 265.679 0.181061C267.208 13.5688 268.648 26.9598 270 40.3541C268.605 40.315 267.211 40.2792 265.82 40.2498V40.2531ZM250.835 4.00939C249.337 4.00613 247.838 4.00287 246.342 4.00939C246.368 16.0255 246.398 28.0448 246.424 40.0609C245.01 40.0609 243.599 40.0706 242.185 40.0804C242.094 28.0643 242.002 16.0483 241.911 4.02894C240.412 4.04197 238.914 4.05501 237.418 4.07455C237.402 2.73871 237.382 1.40287 237.366 0.0702838C241.862 0.011637 246.359 -0.0111701 250.852 0.00512072C250.848 1.34096 250.842 2.67681 250.839 4.00939H250.835ZM226.813 14.5854C226.474 12.3046 226.181 9.64274 225.936 6.59636C225.855 6.59636 225.774 6.59962 225.692 6.60288C225.552 8.86078 225.344 11.5357 225.073 14.6342C224.692 18.8438 224.32 23.0533 223.956 27.2628C225.51 27.214 227.064 27.1716 228.618 27.1358C228.022 22.9523 227.422 18.7688 226.81 14.5886L226.813 14.5854ZM230.508 40.2563C230.071 37.2132 229.631 34.1701 229.185 31.127C227.324 31.1726 225.464 31.2215 223.607 31.2801C223.327 34.3428 223.056 37.4055 222.786 40.4649C221.391 40.5105 220 40.5594 218.606 40.6115C219.981 27.1977 221.453 13.7871 223.017 0.379808C224.868 0.32442 226.718 0.272289 228.569 0.229933C230.697 13.5362 232.733 26.849 234.685 40.1716C233.29 40.1944 231.896 40.2238 230.504 40.2563H230.508ZM209.496 41.009C207.736 41.097 205.977 41.1882 204.214 41.2859C201.826 28.0448 199.353 14.8167 196.799 1.5951C198.281 1.50387 199.764 1.4159 201.246 1.33119C202.66 9.37231 204.048 17.4134 205.407 25.4611C205.801 27.6929 206.199 30.7295 206.596 34.5676C206.655 34.5676 206.713 34.5611 206.772 34.5578C206.899 30.9967 207.036 27.934 207.183 25.3666C207.776 17.2179 208.398 9.07256 209.049 0.92392C210.512 0.855499 211.975 0.790336 213.441 0.728431C212.031 14.152 210.714 27.5789 209.493 41.009H209.496Z" fill="white"/>
<path d="M299.671 18.6397C299.707 18.6397 316.07 19.0698 334.745 20.562L334.85 19.262C316.135 17.7665 299.714 17.3364 299.707 17.3364H299.704L299.671 18.6397Z" fill="white"/>
<path d="M191.433 17.3364H191.43C191.43 17.3364 175.051 17.7665 156.392 19.262L156.496 20.562C175.116 19.073 191.43 18.6429 191.466 18.6397L191.433 17.3364Z" fill="white"/>
</svg>
